<svg id="f7bb3db6-0aca-42e3-bcc4-5e9b3a55e19d" xmlns="http://www.w3.org/2000/svg" viewBox="0 0 681.82 581.35">
  <path d="M643,469.35q-36.48-5.72-70.14-9.71l8.64-17.29c-3-1-16,9-16,9l11-50c-15,2-22,53-22,53l-17-17,8.37,19.25c-68.68-7.22-127.95-9.47-177.77-9l7.4-14.8c-3-1-16,9-16,9l11-50c-15,2-22,53-22,53l-17-17,8.86,20.39a998.2,998.2,0,0,0-102,8.21c7.38-23,33.16-45.1,33.16-45.1-19.82,6.17-30.13,16.21-35.47,25.53a401.59,401.59,0,0,1,21.47-139s-40,90-34,150l.76,10.66c-34.8,5.43-52.26,10.84-52.26,10.84Z" transform="translate(-148.68 112)" style="fill: #3f3d56"/>
  <path d="M734.67,345.49a12,12,0,1,1,12-12A12,12,0,0,1,734.67,345.49Zm0-22a10,10,0,1,0,10,10A10,10,0,0,0,734.67,323.49Z" transform="translate(-148.68 112)" style="fill: #3f3d56"/>
  <path d="M830.5,467.78H810.76V448H830.5Zm-18.22-1.52H829V449.55h-16.7Z" transform="translate(-148.68 112)" style="fill: #3f3d56"/>
  <path d="M162.14,468.86l-13.46-14.44L163.11,441l13.47,14.44Zm-11.31-14.37,11.39,12.22,12.21-11.39L163,443.1Z" transform="translate(-148.68 112)" style="fill: #3f3d56"/>
  <path d="M553.47,21.76V87.44a2.29,2.29,0,0,1-2.29,2.29h-1.62V431.88a35.71,35.71,0,0,1-35.7,35.7H300.07a35.68,35.68,0,0,1-35.69-35.7h0V101.73H263.2a1.61,1.61,0,0,1-1.62-1.61V62.74a1.61,1.61,0,0,1,1.61-1.62h1.19V47h-1.2a1.68,1.68,0,0,1-1.68-1.7V8.47a1.69,1.69,0,0,1,1.68-1.69h1.2V-12.44h-1.21a1.5,1.5,0,0,1-1.5-1.5h0V-34.06a1.49,1.49,0,0,1,1.5-1.51h1.21V-76.31A35.68,35.68,0,0,1,300.07-112H513.85a35.71,35.71,0,0,1,35.71,35.69V19.47h1.62A2.29,2.29,0,0,1,553.47,21.76Z" transform="translate(-148.68 112)" style="fill: #3f3d56"/>
  <rect x="231.3" y="18.31" width="39.82" height="8.09" rx="2.54" style="fill: #e6e8ec"/>
  <circle cx="281.73" cy="22.35" r="4.59" style="fill: #e6e8ec"/>
  <path d="M532.46-69.25V434.84a22.65,22.65,0,0,1-22.65,22.64H305.16a22.54,22.54,0,0,1-10.46-2.55,21.17,21.17,0,0,1-2.2-1.3,22.66,22.66,0,0,1-10-18.79V-69.25A22.65,22.65,0,0,1,305.16-91.9h30.63V-88a18.65,18.65,0,0,0,18.65,18.65H458.52A18.65,18.65,0,0,0,477.17-88V-91.9h32.64a22.64,22.64,0,0,1,22.65,22.64Z" transform="translate(-148.68 112)" style="fill: #0000FF"/>
  <path d="M532.46,362.68v72.16a22.65,22.65,0,0,1-22.65,22.64H305.16a22.54,22.54,0,0,1-10.46-2.55,21.17,21.17,0,0,1-2.2-1.3,22.66,22.66,0,0,1-10-18.79V362.71A187,187,0,0,1,532.46,362.68Z" transform="translate(-148.68 112)" style="fill: #fff;opacity: 0.300000011920929;isolation: isolate"/>
  <path d="M520.29,454.91a22.37,22.37,0,0,1-10.48,2.57H305.16a22.54,22.54,0,0,1-10.46-2.55,122.16,122.16,0,0,1,225.59,0Z" transform="translate(-148.68 112)" style="fill: #fff;opacity: 0.300000011920929;isolation: isolate"/>
  <path d="M475.75,456.12a13.61,13.61,0,0,1-6.34,1.56H345.57a13.68,13.68,0,0,1-6.33-1.55,73.93,73.93,0,0,1,136.51,0Z" transform="translate(-148.68 112)" style="fill: #fff;opacity: 0.300000011920929;isolation: isolate"/>
  <path d="M459.55,103.25c-20.53,0-43.06-3.91-60.65-17.1-24.49-18.36-54.66-17.38-75.65-13.33A164.91,164.91,0,0,0,283,86.24l-.92-1.78a167,167,0,0,1,40.76-13.59c21.41-4.14,52.2-5.14,77.29,13.68,47,35.25,131.16,3.59,132,3.27l.72,1.87a242.85,242.85,0,0,1-48.71,11.85A186.89,186.89,0,0,1,459.55,103.25Z" transform="translate(-148.68 112)" style="fill: #fff"/>
  <path d="M282.5,85.35s69-16.71,117,6.17,133-.17,133-.17" transform="translate(-148.68 112)" style="fill: #fff;opacity: 0.300000011920929;isolation: isolate"/>
  <path d="M347.64,111.31a131.9,131.9,0,0,1-24.83-2.48,166.59,166.59,0,0,1-40.76-13.59l.92-1.78a164.91,164.91,0,0,0,40.28,13.42c21,4.06,51.16,5,75.65-13.33C424,74.75,459.08,74.8,484.11,78.16A242.2,242.2,0,0,1,532.82,90l-.72,1.86c-.84-.32-85-32-132,3.27C383.65,107.49,364.74,111.31,347.64,111.31Z" transform="translate(-148.68 112)" style="fill: #fff;opacity: 0.300000011920929;isolation: isolate"/>
  <path d="M348,103.26c-34.63,0-65.39-12.43-65.85-12.62l.76-1.85c.69.29,69.09,27.9,116.1.07,47.83-28.32,132.91-3,133.76-2.78L532.17,88c-.84-.26-85.09-25.28-132.16,2.59C384,100.09,365.47,103.26,348,103.26Z" transform="translate(-148.68 112)" style="fill: #fff;opacity: 0.300000011920929;isolation: isolate"/>
  <path d="M282.51,88.18s69,22.88,117,0,133-2.16,133-2.16" transform="translate(-148.68 112)" style="fill: #fff;opacity: 0.300000011920929;isolation: isolate"/>
  <path d="M550.27,149.4v29.15s2.33,32.65,15.16,49c0,0,21,29.74,23.9,23.32l-3.59-21.11L573.59,218.2l-6.41-36.15-1.75-32.65Z" transform="translate(-148.68 112)" style="fill: #ffb8b8"/>
  <polygon points="530.45 524.94 530.45 546.51 512.95 552.93 512.95 527.86 530.45 524.94" style="fill: #ffb8b8"/>
  <polygon points="494.88 522.61 506.54 548.85 490.21 555.84 486.72 530.19 494.88 522.61" style="fill: #ffb8b8"/>
  <path d="M672.71,209.45S696,419.94,687.29,420.52s-25.66,11.66-25.66,4.08-13.41-106.11-13.41-106.11L635.4,267.76v70L648.81,417s-12.83,16.91-22.16,7l-19.82-77.55s-26.24-117.77-25.08-127.1C581.75,219.37,641.81,168.06,672.71,209.45Z" transform="translate(-148.68 112)" style="fill: #2f2e41"/>
  <path d="M668.05,435.68s4.66-9.91,15.16-3.5l8.74,10.5s22.55,18.67,6.55,22.67c-16.49,4.12-26.37-.26-26.37-.26s-2.92-1.75-5.25-1.75-7.58-4.08-7.58-5.25,1.75-21.83,1.75-21.83a3.69,3.69,0,0,1,4.08.59C666.88,438.6,668.05,435.68,668.05,435.68Z" transform="translate(-148.68 112)" style="fill: #2f2e41"/>
  <path d="M633.65,432.18s11.07-8.74,16.32,1.17c0,0,3.31,1.16,3.69,0S657,431.6,657,438s3.16,22.41.25,23-5.83,2.33-5.25,4.66-3.16,2.66-16.57,2.08-14-5.83-14-5.83,0-7.58,3.5-11.66S633.65,432.18,633.65,432.18Z" transform="translate(-148.68 112)" style="fill: #2f2e41"/>
  <path d="M612.07,50.28s-2.91,21.57,15.75,29.15-41.4,32.65-47.23,18.08,1.16-19.24,1.16-19.24,5.83-5.83.59-21.58Z" transform="translate(-148.68 112)" style="fill: #ffb8b8"/>
  <circle cx="444.74" cy="151.79" r="25.65" style="fill: #ffb8b8"/>
  <path d="M623.15,86.43s-17.49,9.33-34.4,2.33-16.32,23.32-16.32,23.32l8.74,22.74L641.81,129l-4.08-35Z" transform="translate(-148.68 112)" style="fill: #f2f2f2"/>
  <path d="M614.46,66.48A21.17,21.17,0,0,1,629,77.68l28,8.75,7,9.91-8.17,71.72S671,182.63,671,190.8s18.66,36.15,9.33,32.65-26.24-15.74-26.24-15.74-42.56,1.74-56,13.41-18.66,8.16-18.66,8.16-14-60.64-14.57-70S547.94,94,547.94,94l29.15-16.33,7.43-8.42,20.56,32.91,18.65-22.74S614.52,72.18,614.46,66.48Z" transform="translate(-148.68 112)" style="fill: #3f3d56"/>
  <path d="M672.71,141.24l3.5,18.65S692,218.2,689.62,238c0,0,1.75,44.32-8.16,39.07s-4.67-37.32-4.67-37.32l-14-57.72-7.58-33.82Z" transform="translate(-148.68 112)" style="fill: #ffb8b8"/>
  <path d="M658.13,92.84l5.84,3.5s22.15,46.06,16.9,49.56-28,11.08-28,11.08Z" transform="translate(-148.68 112)" style="fill: #3f3d56"/>
  <polygon points="413.25 206.01 399.55 205.72 396.34 211.26 400.42 267.81 421.41 272.48 413.25 206.01" style="fill: #3f3d56"/>
  <path d="M614.31,18.09l4.62-1.68s-9.67-9.67-23.12-8.83l3.78-3.78S590.35.43,581.94,9.26c-4.42,4.64-9.54,10.1-12.72,16.24h-5l2.07,4.13-7.23,4.14,7.42-.74a20.92,20.92,0,0,0,.7,10.7l1.69,4.62s6.72-13.45,6.72-15.13v4.21s4.63-3.79,4.63-6.31l2.52,2.94L584,29.44l15.55,4.62-2.52-3.78,9.67,1.26L603,26.92S613.89,32.38,614.31,37s3.3,10.65,3.3,10.65l3.5-4.08S626.5,24.39,614.31,18.09Z" transform="translate(-148.68 112)" style="fill: #2f2e41"/>
  <ellipse cx="466.31" cy="152.08" rx="2.04" ry="5.25" style="fill: #ffb8b8"/>
  <path d="M194.63,427C207.06,450.07,233.44,460,233.44,460s6.23-27.48-6.2-50.52-38.81-32.95-38.81-32.95S182.21,404,194.63,427Z" transform="translate(-148.68 112)" style="fill: #3f3d56"/>
  <path d="M203.18,419.43c22.43,13.5,31.08,40.32,31.08,40.32s-27.74,4.92-50.18-8.58S153,410.86,153,410.86,180.74,405.93,203.18,419.43Z" transform="translate(-148.68 112)" style="fill: #57d6a8"/>
  <path d="M282.51,85.35s69-36,117,0,133,3.4,133,3.4" transform="translate(-148.68 112)" style="fill: #fff;opacity: 0.300000011920929;isolation: isolate"/>
  <circle cx="259.07" cy="552.68" r="11" style="fill: #fff"/>
</svg>
